<svg width="429" height="431" viewBox="0 0 429 431" fill="none" xmlns="http://www.w3.org/2000/svg">
<path d="M226.095 367.202C123.218 395.114 50.1832 343.278 0.708008 231.632V0.365601H428.708V431C395.463 400.43 308.397 344.873 226.095 367.202Z" fill="#8332A6" fill-opacity="0.4"/>
<path d="M235.5 366.769C145.113 385.666 111.792 401.248 1 352.472V0H429V366.769C354.5 333.275 336 345.758 235.5 366.769Z" fill="#8332A6" fill-opacity="0.4"/>
<path d="M140 392.5C65.7352 398.415 25.5 369 0.708008 314.5V0.365601H428.708V397.772C379.5 328 196.5 388 140 392.5Z" fill="#8332A6" fill-opacity="0.4"/>
<path d="M178.668 341.907C51.0054 341.907 39.974 210.051 0.708008 105.05V0.365601H428.708V397.772C325.81 217.133 262.697 341.907 178.668 341.907Z" fill="#8332A6" fill-opacity="0.4"/>
<path d="M236.78 222.254C149.416 169.077 124.701 345.209 0.708008 399.583V0.365601H428.708V180.305C357.331 441.535 261.17 237.1 236.78 222.254Z" fill="#8332A6" fill-opacity="0.4"/>
<path d="M211.5 274.695C124.136 221.517 124.701 253.43 0.708008 307.804V0.365601H428.708V262.496C293.5 411.2 235.89 289.54 211.5 274.695Z" fill="#8332A6" fill-opacity="0.4"/>
</svg>
